<mxfile host="app.diagrams.net" modified="2024-04-17T11:00:35.816Z" agent="Mozilla/5.0 (Windows NT 10.0; Win64; x64) AppleWebKit/537.36 (KHTML, like Gecko) Chrome/123.0.0.0 Safari/537.36" etag="qDASWWpp5GEAlDfTSyZY" version="24.2.5" type="device">
  <diagram id="6_Zl-lnb4FFsCGgmXbsp" name="Página-1">
    <mxGraphModel dx="989" dy="521" grid="1" gridSize="10" guides="1" tooltips="1" connect="1" arrows="1" fold="1" page="1" pageScale="1" pageWidth="827" pageHeight="1169" math="0" shadow="0">
      <root>
        <mxCell id="0" />
        <mxCell id="1" parent="0" />
        <mxCell id="4MTGIlOZVMy8EB1IHIza-2" value="cliente" style="rounded=0;whiteSpace=wrap;html=1;" parent="1" vertex="1">
          <mxGeometry x="70" y="250" width="90" height="30" as="geometry" />
        </mxCell>
        <mxCell id="4MTGIlOZVMy8EB1IHIza-3" value="sistema" style="rounded=0;whiteSpace=wrap;html=1;" parent="1" vertex="1">
          <mxGeometry x="410" y="250" width="90" height="30" as="geometry" />
        </mxCell>
        <mxCell id="4MTGIlOZVMy8EB1IHIza-4" value="" style="endArrow=none;html=1;rounded=0;entryX=0.5;entryY=1;entryDx=0;entryDy=0;dashed=1;" parent="1" source="4MTGIlOZVMy8EB1IHIza-6" target="4MTGIlOZVMy8EB1IHIza-2" edge="1">
          <mxGeometry width="50" height="50" relative="1" as="geometry">
            <mxPoint x="115" y="760" as="sourcePoint" />
            <mxPoint x="440" y="360" as="targetPoint" />
          </mxGeometry>
        </mxCell>
        <mxCell id="4MTGIlOZVMy8EB1IHIza-5" value="" style="endArrow=none;html=1;rounded=0;entryX=0.5;entryY=1;entryDx=0;entryDy=0;dashed=1;" parent="1" source="4MTGIlOZVMy8EB1IHIza-11" target="4MTGIlOZVMy8EB1IHIza-3" edge="1">
          <mxGeometry width="50" height="50" relative="1" as="geometry">
            <mxPoint x="454.5" y="750" as="sourcePoint" />
            <mxPoint x="454.5" y="280" as="targetPoint" />
          </mxGeometry>
        </mxCell>
        <mxCell id="4MTGIlOZVMy8EB1IHIza-7" value="" style="endArrow=none;html=1;rounded=0;entryX=0.5;entryY=1;entryDx=0;entryDy=0;dashed=1;" parent="1" source="4MTGIlOZVMy8EB1IHIza-28" target="4MTGIlOZVMy8EB1IHIza-6" edge="1">
          <mxGeometry width="50" height="50" relative="1" as="geometry">
            <mxPoint x="115" y="760" as="sourcePoint" />
            <mxPoint x="115" y="290" as="targetPoint" />
          </mxGeometry>
        </mxCell>
        <mxCell id="4MTGIlOZVMy8EB1IHIza-19" style="edgeStyle=orthogonalEdgeStyle;rounded=0;orthogonalLoop=1;jettySize=auto;html=1;exitX=1;exitY=0.25;exitDx=0;exitDy=0;entryX=1;entryY=0.5;entryDx=0;entryDy=0;" parent="1" source="4MTGIlOZVMy8EB1IHIza-11" target="4MTGIlOZVMy8EB1IHIza-11" edge="1">
          <mxGeometry relative="1" as="geometry">
            <Array as="points">
              <mxPoint x="490" y="380" />
              <mxPoint x="490" y="430" />
            </Array>
          </mxGeometry>
        </mxCell>
        <mxCell id="4MTGIlOZVMy8EB1IHIza-6" value="" style="rounded=0;whiteSpace=wrap;html=1;" parent="1" vertex="1">
          <mxGeometry x="105" y="340" width="20" height="130" as="geometry" />
        </mxCell>
        <mxCell id="4MTGIlOZVMy8EB1IHIza-8" style="edgeStyle=orthogonalEdgeStyle;rounded=0;orthogonalLoop=1;jettySize=auto;html=1;exitX=1;exitY=0;exitDx=0;exitDy=0;entryX=0;entryY=0.05;entryDx=0;entryDy=0;entryPerimeter=0;" parent="1" source="4MTGIlOZVMy8EB1IHIza-6" target="4MTGIlOZVMy8EB1IHIza-11" edge="1">
          <mxGeometry relative="1" as="geometry">
            <Array as="points">
              <mxPoint x="200" y="340" />
              <mxPoint x="200" y="340" />
            </Array>
            <mxPoint x="450" y="340" as="targetPoint" />
          </mxGeometry>
        </mxCell>
        <mxCell id="4MTGIlOZVMy8EB1IHIza-10" value="1. Selecciona productos, escribe la cantidad" style="text;html=1;align=center;verticalAlign=middle;whiteSpace=wrap;rounded=0;" parent="1" vertex="1">
          <mxGeometry x="125" y="310" width="245" height="30" as="geometry" />
        </mxCell>
        <mxCell id="4MTGIlOZVMy8EB1IHIza-12" value="" style="endArrow=none;html=1;rounded=0;entryX=0.5;entryY=1;entryDx=0;entryDy=0;dashed=1;" parent="1" source="4MTGIlOZVMy8EB1IHIza-32" target="4MTGIlOZVMy8EB1IHIza-11" edge="1">
          <mxGeometry width="50" height="50" relative="1" as="geometry">
            <mxPoint x="454.5" y="750" as="sourcePoint" />
            <mxPoint x="455" y="280" as="targetPoint" />
          </mxGeometry>
        </mxCell>
        <mxCell id="4MTGIlOZVMy8EB1IHIza-21" style="edgeStyle=orthogonalEdgeStyle;rounded=0;orthogonalLoop=1;jettySize=auto;html=1;entryX=1;entryY=0.75;entryDx=0;entryDy=0;" parent="1" target="4MTGIlOZVMy8EB1IHIza-6" edge="1">
          <mxGeometry relative="1" as="geometry">
            <mxPoint x="440" y="438" as="sourcePoint" />
            <Array as="points">
              <mxPoint x="439" y="438" />
              <mxPoint x="285" y="438" />
            </Array>
          </mxGeometry>
        </mxCell>
        <mxCell id="4MTGIlOZVMy8EB1IHIza-11" value="" style="rounded=0;whiteSpace=wrap;html=1;" parent="1" vertex="1">
          <mxGeometry x="440" y="330" width="25" height="200" as="geometry" />
        </mxCell>
        <mxCell id="4MTGIlOZVMy8EB1IHIza-20" value="2.Valida datos introducidos por cliente" style="text;html=1;align=center;verticalAlign=middle;whiteSpace=wrap;rounded=0;" parent="1" vertex="1">
          <mxGeometry x="499" y="390" width="230" height="30" as="geometry" />
        </mxCell>
        <mxCell id="4MTGIlOZVMy8EB1IHIza-22" value="3.muestra importe y total acumulado" style="text;html=1;align=center;verticalAlign=middle;whiteSpace=wrap;rounded=0;" parent="1" vertex="1">
          <mxGeometry x="184" y="410" width="230" height="30" as="geometry" />
        </mxCell>
        <mxCell id="4MTGIlOZVMy8EB1IHIza-24" value="" style="rounded=0;whiteSpace=wrap;html=1;fillColor=#FA2A23;strokeColor=#FF3B14;gradientColor=none;fillStyle=auto;opacity=20;" parent="1" vertex="1">
          <mxGeometry x="80" y="310" width="650" height="180" as="geometry" />
        </mxCell>
        <mxCell id="4MTGIlOZVMy8EB1IHIza-25" value="[hasta que cliente indique fin de compra]" style="text;html=1;align=center;verticalAlign=middle;whiteSpace=wrap;rounded=0;" parent="1" vertex="1">
          <mxGeometry x="170" y="470" width="240" height="30" as="geometry" />
        </mxCell>
        <mxCell id="4MTGIlOZVMy8EB1IHIza-29" value="" style="endArrow=none;html=1;rounded=0;entryX=0.5;entryY=1;entryDx=0;entryDy=0;dashed=1;" parent="1" target="4MTGIlOZVMy8EB1IHIza-28" edge="1">
          <mxGeometry width="50" height="50" relative="1" as="geometry">
            <mxPoint x="115" y="760" as="sourcePoint" />
            <mxPoint x="115" y="470" as="targetPoint" />
          </mxGeometry>
        </mxCell>
        <mxCell id="4MTGIlOZVMy8EB1IHIza-40" style="edgeStyle=orthogonalEdgeStyle;rounded=0;orthogonalLoop=1;jettySize=auto;html=1;exitX=1;exitY=0.75;exitDx=0;exitDy=0;entryX=0;entryY=0.5;entryDx=0;entryDy=0;" parent="1" source="4MTGIlOZVMy8EB1IHIza-28" target="4MTGIlOZVMy8EB1IHIza-32" edge="1">
          <mxGeometry relative="1" as="geometry" />
        </mxCell>
        <mxCell id="4MTGIlOZVMy8EB1IHIza-28" value="" style="rounded=0;whiteSpace=wrap;html=1;" parent="1" vertex="1">
          <mxGeometry x="105" y="500" width="20" height="140" as="geometry" />
        </mxCell>
        <mxCell id="4MTGIlOZVMy8EB1IHIza-30" style="edgeStyle=orthogonalEdgeStyle;rounded=0;orthogonalLoop=1;jettySize=auto;html=1;exitX=1;exitY=0;exitDx=0;exitDy=0;" parent="1" source="4MTGIlOZVMy8EB1IHIza-28" edge="1">
          <mxGeometry relative="1" as="geometry">
            <Array as="points">
              <mxPoint x="125" y="530" />
            </Array>
            <mxPoint x="440" y="530" as="targetPoint" />
          </mxGeometry>
        </mxCell>
        <mxCell id="4MTGIlOZVMy8EB1IHIza-31" value="4.selecciona método de pago" style="text;html=1;align=center;verticalAlign=middle;whiteSpace=wrap;rounded=0;" parent="1" vertex="1">
          <mxGeometry x="115" y="490" width="240" height="30" as="geometry" />
        </mxCell>
        <mxCell id="4MTGIlOZVMy8EB1IHIza-33" value="" style="endArrow=none;html=1;rounded=0;entryX=0.5;entryY=1;entryDx=0;entryDy=0;dashed=1;" parent="1" target="4MTGIlOZVMy8EB1IHIza-32" edge="1">
          <mxGeometry width="50" height="50" relative="1" as="geometry">
            <mxPoint x="454.5" y="750" as="sourcePoint" />
            <mxPoint x="455" y="470" as="targetPoint" />
          </mxGeometry>
        </mxCell>
        <mxCell id="4MTGIlOZVMy8EB1IHIza-37" style="edgeStyle=orthogonalEdgeStyle;rounded=0;orthogonalLoop=1;jettySize=auto;html=1;exitX=0;exitY=0;exitDx=0;exitDy=0;entryX=1;entryY=0.5;entryDx=0;entryDy=0;" parent="1" source="4MTGIlOZVMy8EB1IHIza-32" target="4MTGIlOZVMy8EB1IHIza-28" edge="1">
          <mxGeometry relative="1" as="geometry">
            <Array as="points">
              <mxPoint x="445" y="568" />
              <mxPoint x="285" y="568" />
              <mxPoint x="285" y="570" />
            </Array>
          </mxGeometry>
        </mxCell>
        <mxCell id="4MTGIlOZVMy8EB1IHIza-43" style="edgeStyle=orthogonalEdgeStyle;rounded=0;orthogonalLoop=1;jettySize=auto;html=1;exitX=0;exitY=1;exitDx=0;exitDy=0;entryX=1;entryY=0.75;entryDx=0;entryDy=0;" parent="1" source="4MTGIlOZVMy8EB1IHIza-32" target="4MTGIlOZVMy8EB1IHIza-32" edge="1">
          <mxGeometry relative="1" as="geometry">
            <Array as="points">
              <mxPoint x="490" y="640" />
              <mxPoint x="490" y="623" />
            </Array>
          </mxGeometry>
        </mxCell>
        <mxCell id="4MTGIlOZVMy8EB1IHIza-32" value="" style="rounded=0;whiteSpace=wrap;html=1;" parent="1" vertex="1">
          <mxGeometry x="445" y="570" width="20" height="70" as="geometry" />
        </mxCell>
        <mxCell id="4MTGIlOZVMy8EB1IHIza-36" value="5.sistema solicita datos según método de pago" style="text;html=1;align=center;verticalAlign=middle;whiteSpace=wrap;rounded=0;" parent="1" vertex="1">
          <mxGeometry x="147.5" y="540" width="285" height="30" as="geometry" />
        </mxCell>
        <mxCell id="4MTGIlOZVMy8EB1IHIza-41" value="6.Introduce los datos y realiza pago" style="text;html=1;align=center;verticalAlign=middle;whiteSpace=wrap;rounded=0;" parent="1" vertex="1">
          <mxGeometry x="147.5" y="585" width="285" height="30" as="geometry" />
        </mxCell>
        <mxCell id="4MTGIlOZVMy8EB1IHIza-44" value="7.sistema confirma pago y registra la compra del cliente" style="text;html=1;align=center;verticalAlign=middle;whiteSpace=wrap;rounded=0;" parent="1" vertex="1">
          <mxGeometry x="490" y="615" width="210" height="30" as="geometry" />
        </mxCell>
        <mxCell id="4MTGIlOZVMy8EB1IHIza-46" value="1." style="whiteSpace=wrap;html=1;fillColor=#e1d5e7;strokeColor=#9673a6;" parent="1" vertex="1">
          <mxGeometry x="10" y="240" width="30" height="30" as="geometry" />
        </mxCell>
        <mxCell id="4MTGIlOZVMy8EB1IHIza-47" value="2." style="whiteSpace=wrap;html=1;fillColor=#e1d5e7;strokeColor=#9673a6;" parent="1" vertex="1">
          <mxGeometry x="770" y="240" width="30" height="30" as="geometry" />
        </mxCell>
        <mxCell id="4MTGIlOZVMy8EB1IHIza-48" value="alumno" style="rounded=0;whiteSpace=wrap;html=1;" parent="1" vertex="1">
          <mxGeometry x="870" y="250" width="90" height="30" as="geometry" />
        </mxCell>
        <mxCell id="4MTGIlOZVMy8EB1IHIza-49" value="secretaria" style="rounded=0;whiteSpace=wrap;html=1;" parent="1" vertex="1">
          <mxGeometry x="1120" y="250" width="90" height="30" as="geometry" />
        </mxCell>
        <mxCell id="4MTGIlOZVMy8EB1IHIza-50" value="horario_Curso" style="rounded=0;whiteSpace=wrap;html=1;" parent="1" vertex="1">
          <mxGeometry x="1370" y="250" width="90" height="30" as="geometry" />
        </mxCell>
        <mxCell id="4MTGIlOZVMy8EB1IHIza-51" value="registro_Consultas" style="rounded=0;whiteSpace=wrap;html=1;" parent="1" vertex="1">
          <mxGeometry x="1620" y="250" width="110" height="30" as="geometry" />
        </mxCell>
        <mxCell id="4MTGIlOZVMy8EB1IHIza-52" value="" style="endArrow=none;html=1;rounded=0;entryX=0.5;entryY=1;entryDx=0;entryDy=0;dashed=1;" parent="1" source="4MTGIlOZVMy8EB1IHIza-56" edge="1">
          <mxGeometry width="50" height="50" relative="1" as="geometry">
            <mxPoint x="915" y="810" as="sourcePoint" />
            <mxPoint x="914.5" y="280" as="targetPoint" />
          </mxGeometry>
        </mxCell>
        <mxCell id="4MTGIlOZVMy8EB1IHIza-53" value="" style="endArrow=none;html=1;rounded=0;entryX=0.5;entryY=1;entryDx=0;entryDy=0;dashed=1;" parent="1" source="4MTGIlOZVMy8EB1IHIza-58" target="4MTGIlOZVMy8EB1IHIza-49" edge="1">
          <mxGeometry width="50" height="50" relative="1" as="geometry">
            <mxPoint x="1170.5" y="810" as="sourcePoint" />
            <mxPoint x="1170" y="280" as="targetPoint" />
          </mxGeometry>
        </mxCell>
        <mxCell id="4MTGIlOZVMy8EB1IHIza-54" value="" style="endArrow=none;html=1;rounded=0;entryX=0.5;entryY=1;entryDx=0;entryDy=0;dashed=1;" parent="1" source="4MTGIlOZVMy8EB1IHIza-63" target="4MTGIlOZVMy8EB1IHIza-50" edge="1">
          <mxGeometry width="50" height="50" relative="1" as="geometry">
            <mxPoint x="1415" y="810" as="sourcePoint" />
            <mxPoint x="1414.5" y="280" as="targetPoint" />
          </mxGeometry>
        </mxCell>
        <mxCell id="4MTGIlOZVMy8EB1IHIza-55" value="" style="endArrow=none;html=1;rounded=0;entryX=0.5;entryY=1;entryDx=0;entryDy=0;dashed=1;" parent="1" source="4MTGIlOZVMy8EB1IHIza-77" target="4MTGIlOZVMy8EB1IHIza-51" edge="1">
          <mxGeometry width="50" height="50" relative="1" as="geometry">
            <mxPoint x="1680.5" y="810" as="sourcePoint" />
            <mxPoint x="1680" y="280" as="targetPoint" />
          </mxGeometry>
        </mxCell>
        <mxCell id="4MTGIlOZVMy8EB1IHIza-57" value="" style="endArrow=none;html=1;rounded=0;entryX=0.5;entryY=1;entryDx=0;entryDy=0;dashed=1;" parent="1" source="4MTGIlOZVMy8EB1IHIza-72" target="4MTGIlOZVMy8EB1IHIza-56" edge="1">
          <mxGeometry width="50" height="50" relative="1" as="geometry">
            <mxPoint x="915" y="810" as="sourcePoint" />
            <mxPoint x="914.5" y="280" as="targetPoint" />
          </mxGeometry>
        </mxCell>
        <mxCell id="4MTGIlOZVMy8EB1IHIza-56" value="" style="rounded=0;whiteSpace=wrap;html=1;" parent="1" vertex="1">
          <mxGeometry x="905" y="330" width="20" height="120" as="geometry" />
        </mxCell>
        <mxCell id="4MTGIlOZVMy8EB1IHIza-59" value="" style="endArrow=none;html=1;rounded=0;entryX=0.5;entryY=1;entryDx=0;entryDy=0;dashed=1;" parent="1" target="4MTGIlOZVMy8EB1IHIza-58" edge="1">
          <mxGeometry width="50" height="50" relative="1" as="geometry">
            <mxPoint x="1170.5" y="810" as="sourcePoint" />
            <mxPoint x="1170" y="280" as="targetPoint" />
          </mxGeometry>
        </mxCell>
        <mxCell id="4MTGIlOZVMy8EB1IHIza-65" style="edgeStyle=orthogonalEdgeStyle;rounded=0;orthogonalLoop=1;jettySize=auto;html=1;exitX=1;exitY=0.25;exitDx=0;exitDy=0;entryX=0;entryY=0;entryDx=0;entryDy=0;" parent="1" source="4MTGIlOZVMy8EB1IHIza-58" target="4MTGIlOZVMy8EB1IHIza-63" edge="1">
          <mxGeometry relative="1" as="geometry">
            <Array as="points">
              <mxPoint x="1405" y="375" />
            </Array>
          </mxGeometry>
        </mxCell>
        <mxCell id="4MTGIlOZVMy8EB1IHIza-58" value="" style="rounded=0;whiteSpace=wrap;html=1;" parent="1" vertex="1">
          <mxGeometry x="1155" y="345" width="20" height="120" as="geometry" />
        </mxCell>
        <mxCell id="4MTGIlOZVMy8EB1IHIza-61" style="edgeStyle=orthogonalEdgeStyle;rounded=0;orthogonalLoop=1;jettySize=auto;html=1;exitX=1;exitY=0.25;exitDx=0;exitDy=0;entryX=0.05;entryY=0.142;entryDx=0;entryDy=0;entryPerimeter=0;" parent="1" source="4MTGIlOZVMy8EB1IHIza-56" target="4MTGIlOZVMy8EB1IHIza-58" edge="1">
          <mxGeometry relative="1" as="geometry" />
        </mxCell>
        <mxCell id="4MTGIlOZVMy8EB1IHIza-62" value="1.solicita información sobre un curso" style="text;html=1;align=center;verticalAlign=middle;resizable=0;points=[];autosize=1;strokeColor=none;fillColor=none;" parent="1" vertex="1">
          <mxGeometry x="935" y="330" width="220" height="30" as="geometry" />
        </mxCell>
        <mxCell id="4MTGIlOZVMy8EB1IHIza-64" value="" style="endArrow=none;html=1;rounded=0;entryX=0.5;entryY=1;entryDx=0;entryDy=0;dashed=1;" parent="1" target="4MTGIlOZVMy8EB1IHIza-63" edge="1">
          <mxGeometry width="50" height="50" relative="1" as="geometry">
            <mxPoint x="1415" y="810" as="sourcePoint" />
            <mxPoint x="1414.5" y="280" as="targetPoint" />
          </mxGeometry>
        </mxCell>
        <mxCell id="4MTGIlOZVMy8EB1IHIza-67" style="edgeStyle=orthogonalEdgeStyle;rounded=0;orthogonalLoop=1;jettySize=auto;html=1;exitX=0;exitY=0.5;exitDx=0;exitDy=0;entryX=1;entryY=0.75;entryDx=0;entryDy=0;" parent="1" source="4MTGIlOZVMy8EB1IHIza-63" target="4MTGIlOZVMy8EB1IHIza-58" edge="1">
          <mxGeometry relative="1" as="geometry">
            <Array as="points">
              <mxPoint x="1405" y="435" />
            </Array>
          </mxGeometry>
        </mxCell>
        <mxCell id="4MTGIlOZVMy8EB1IHIza-63" value="" style="rounded=0;whiteSpace=wrap;html=1;" parent="1" vertex="1">
          <mxGeometry x="1405" y="375" width="20" height="75" as="geometry" />
        </mxCell>
        <mxCell id="4MTGIlOZVMy8EB1IHIza-66" value="2.busca horario de los cursos" style="text;html=1;align=center;verticalAlign=middle;resizable=0;points=[];autosize=1;strokeColor=none;fillColor=none;" parent="1" vertex="1">
          <mxGeometry x="1205" y="345" width="180" height="30" as="geometry" />
        </mxCell>
        <mxCell id="4MTGIlOZVMy8EB1IHIza-68" value="3.extrae el curso y precio" style="text;html=1;align=center;verticalAlign=middle;resizable=0;points=[];autosize=1;strokeColor=none;fillColor=none;" parent="1" vertex="1">
          <mxGeometry x="1205" y="410" width="160" height="30" as="geometry" />
        </mxCell>
        <mxCell id="4MTGIlOZVMy8EB1IHIza-69" style="edgeStyle=orthogonalEdgeStyle;rounded=0;orthogonalLoop=1;jettySize=auto;html=1;exitX=0;exitY=0.75;exitDx=0;exitDy=0;entryX=1;entryY=0.875;entryDx=0;entryDy=0;entryPerimeter=0;" parent="1" source="4MTGIlOZVMy8EB1IHIza-58" target="4MTGIlOZVMy8EB1IHIza-56" edge="1">
          <mxGeometry relative="1" as="geometry" />
        </mxCell>
        <mxCell id="4MTGIlOZVMy8EB1IHIza-70" value="4.entrega curso y precio" style="text;html=1;align=center;verticalAlign=middle;resizable=0;points=[];autosize=1;strokeColor=none;fillColor=none;" parent="1" vertex="1">
          <mxGeometry x="925" y="408" width="150" height="30" as="geometry" />
        </mxCell>
        <mxCell id="4MTGIlOZVMy8EB1IHIza-74" style="edgeStyle=orthogonalEdgeStyle;rounded=0;orthogonalLoop=1;jettySize=auto;html=1;exitX=0;exitY=0.25;exitDx=0;exitDy=0;entryX=1;entryY=0.25;entryDx=0;entryDy=0;" parent="1" source="4MTGIlOZVMy8EB1IHIza-71" target="4MTGIlOZVMy8EB1IHIza-72" edge="1">
          <mxGeometry relative="1" as="geometry">
            <Array as="points">
              <mxPoint x="1155" y="523" />
              <mxPoint x="1040" y="523" />
              <mxPoint x="1040" y="525" />
            </Array>
          </mxGeometry>
        </mxCell>
        <mxCell id="4MTGIlOZVMy8EB1IHIza-71" value="" style="rounded=0;whiteSpace=wrap;html=1;" parent="1" vertex="1">
          <mxGeometry x="1155" y="495" width="20" height="55" as="geometry" />
        </mxCell>
        <mxCell id="4MTGIlOZVMy8EB1IHIza-73" value="" style="endArrow=none;html=1;rounded=0;entryX=0.5;entryY=1;entryDx=0;entryDy=0;dashed=1;" parent="1" target="4MTGIlOZVMy8EB1IHIza-72" edge="1">
          <mxGeometry width="50" height="50" relative="1" as="geometry">
            <mxPoint x="915" y="810" as="sourcePoint" />
            <mxPoint x="915" y="450" as="targetPoint" />
          </mxGeometry>
        </mxCell>
        <mxCell id="4MTGIlOZVMy8EB1IHIza-79" style="edgeStyle=orthogonalEdgeStyle;rounded=0;orthogonalLoop=1;jettySize=auto;html=1;exitX=1;exitY=0.75;exitDx=0;exitDy=0;entryX=0;entryY=0.5;entryDx=0;entryDy=0;" parent="1" source="4MTGIlOZVMy8EB1IHIza-72" target="4MTGIlOZVMy8EB1IHIza-77" edge="1">
          <mxGeometry relative="1" as="geometry" />
        </mxCell>
        <mxCell id="4MTGIlOZVMy8EB1IHIza-72" value="" style="rounded=0;whiteSpace=wrap;html=1;" parent="1" vertex="1">
          <mxGeometry x="905" y="495" width="20" height="120" as="geometry" />
        </mxCell>
        <mxCell id="4MTGIlOZVMy8EB1IHIza-75" value="5.solicita datos al alumno" style="text;html=1;align=center;verticalAlign=middle;resizable=0;points=[];autosize=1;strokeColor=none;fillColor=none;" parent="1" vertex="1">
          <mxGeometry x="955" y="495" width="160" height="30" as="geometry" />
        </mxCell>
        <mxCell id="4MTGIlOZVMy8EB1IHIza-78" value="" style="endArrow=none;html=1;rounded=0;entryX=0.5;entryY=1;entryDx=0;entryDy=0;dashed=1;" parent="1" target="4MTGIlOZVMy8EB1IHIza-77" edge="1">
          <mxGeometry width="50" height="50" relative="1" as="geometry">
            <mxPoint x="1680.5" y="810" as="sourcePoint" />
            <mxPoint x="1675" y="280" as="targetPoint" />
          </mxGeometry>
        </mxCell>
        <mxCell id="4MTGIlOZVMy8EB1IHIza-77" value="" style="rounded=0;whiteSpace=wrap;html=1;" parent="1" vertex="1">
          <mxGeometry x="1665" y="557" width="20" height="55" as="geometry" />
        </mxCell>
        <mxCell id="4MTGIlOZVMy8EB1IHIza-80" value="6.almacena datos del alumno" style="text;html=1;align=center;verticalAlign=middle;resizable=0;points=[];autosize=1;strokeColor=none;fillColor=none;" parent="1" vertex="1">
          <mxGeometry x="1435" y="550" width="180" height="30" as="geometry" />
        </mxCell>
        <mxCell id="4MTGIlOZVMy8EB1IHIza-81" value="7." style="whiteSpace=wrap;html=1;fillColor=#e1d5e7;strokeColor=#9673a6;" parent="1" vertex="1">
          <mxGeometry x="10" y="810" width="30" height="30" as="geometry" />
        </mxCell>
        <mxCell id="4MTGIlOZVMy8EB1IHIza-82" value="empleado" style="rounded=0;whiteSpace=wrap;html=1;" parent="1" vertex="1">
          <mxGeometry x="80" y="810" width="90" height="30" as="geometry" />
        </mxCell>
        <mxCell id="4MTGIlOZVMy8EB1IHIza-83" value="sistema" style="rounded=0;whiteSpace=wrap;html=1;" parent="1" vertex="1">
          <mxGeometry x="320" y="810" width="90" height="30" as="geometry" />
        </mxCell>
        <mxCell id="4MTGIlOZVMy8EB1IHIza-84" value="" style="endArrow=none;html=1;rounded=0;entryX=0.5;entryY=1;entryDx=0;entryDy=0;dashed=1;" parent="1" source="4MTGIlOZVMy8EB1IHIza-86" target="4MTGIlOZVMy8EB1IHIza-82" edge="1">
          <mxGeometry width="50" height="50" relative="1" as="geometry">
            <mxPoint x="125" y="1200" as="sourcePoint" />
            <mxPoint x="124.05" y="840" as="targetPoint" />
          </mxGeometry>
        </mxCell>
        <mxCell id="4MTGIlOZVMy8EB1IHIza-85" value="" style="endArrow=none;html=1;rounded=0;entryX=0.5;entryY=1;entryDx=0;entryDy=0;dashed=1;" parent="1" source="4MTGIlOZVMy8EB1IHIza-88" target="4MTGIlOZVMy8EB1IHIza-83" edge="1">
          <mxGeometry width="50" height="50" relative="1" as="geometry">
            <mxPoint x="370" y="1200" as="sourcePoint" />
            <mxPoint x="380" y="850" as="targetPoint" />
          </mxGeometry>
        </mxCell>
        <mxCell id="4MTGIlOZVMy8EB1IHIza-87" value="" style="endArrow=none;html=1;rounded=0;entryX=0.5;entryY=1;entryDx=0;entryDy=0;dashed=1;" parent="1" target="4MTGIlOZVMy8EB1IHIza-86" edge="1">
          <mxGeometry width="50" height="50" relative="1" as="geometry">
            <mxPoint x="125" y="1290" as="sourcePoint" />
            <mxPoint x="125" y="840" as="targetPoint" />
          </mxGeometry>
        </mxCell>
        <mxCell id="4MTGIlOZVMy8EB1IHIza-90" style="edgeStyle=orthogonalEdgeStyle;rounded=0;orthogonalLoop=1;jettySize=auto;html=1;exitX=1;exitY=0;exitDx=0;exitDy=0;entryX=0;entryY=0;entryDx=0;entryDy=0;" parent="1" source="4MTGIlOZVMy8EB1IHIza-86" target="4MTGIlOZVMy8EB1IHIza-88" edge="1">
          <mxGeometry relative="1" as="geometry">
            <Array as="points">
              <mxPoint x="250" y="900" />
              <mxPoint x="250" y="900" />
            </Array>
          </mxGeometry>
        </mxCell>
        <mxCell id="4MTGIlOZVMy8EB1IHIza-94" style="edgeStyle=orthogonalEdgeStyle;rounded=0;orthogonalLoop=1;jettySize=auto;html=1;exitX=1;exitY=1;exitDx=0;exitDy=0;entryX=0;entryY=0.5;entryDx=0;entryDy=0;" parent="1" source="4MTGIlOZVMy8EB1IHIza-86" target="4MTGIlOZVMy8EB1IHIza-88" edge="1">
          <mxGeometry relative="1" as="geometry">
            <Array as="points">
              <mxPoint x="190" y="970" />
              <mxPoint x="190" y="970" />
            </Array>
          </mxGeometry>
        </mxCell>
        <mxCell id="4MTGIlOZVMy8EB1IHIza-86" value="" style="rounded=0;whiteSpace=wrap;html=1;" parent="1" vertex="1">
          <mxGeometry x="115" y="900" width="20" height="150" as="geometry" />
        </mxCell>
        <mxCell id="4MTGIlOZVMy8EB1IHIza-89" value="" style="endArrow=none;html=1;rounded=0;entryX=0.5;entryY=1;entryDx=0;entryDy=0;dashed=1;" parent="1" target="4MTGIlOZVMy8EB1IHIza-88" edge="1">
          <mxGeometry width="50" height="50" relative="1" as="geometry">
            <mxPoint x="365" y="1290" as="sourcePoint" />
            <mxPoint x="365" y="840" as="targetPoint" />
          </mxGeometry>
        </mxCell>
        <mxCell id="4MTGIlOZVMy8EB1IHIza-96" style="edgeStyle=orthogonalEdgeStyle;rounded=0;orthogonalLoop=1;jettySize=auto;html=1;exitX=0;exitY=1;exitDx=0;exitDy=0;entryX=1;entryY=1;entryDx=0;entryDy=0;" parent="1" source="4MTGIlOZVMy8EB1IHIza-88" target="4MTGIlOZVMy8EB1IHIza-86" edge="1">
          <mxGeometry relative="1" as="geometry">
            <Array as="points">
              <mxPoint x="355" y="1050" />
            </Array>
          </mxGeometry>
        </mxCell>
        <mxCell id="G_ifErSMRyxqqM8HUOQk-1" style="edgeStyle=orthogonalEdgeStyle;rounded=0;orthogonalLoop=1;jettySize=auto;html=1;exitX=1;exitY=0.25;exitDx=0;exitDy=0;" parent="1" source="4MTGIlOZVMy8EB1IHIza-88" edge="1">
          <mxGeometry relative="1" as="geometry">
            <mxPoint x="499.9999999999998" y="934.9655172413793" as="targetPoint" />
          </mxGeometry>
        </mxCell>
        <mxCell id="G_ifErSMRyxqqM8HUOQk-31" style="edgeStyle=orthogonalEdgeStyle;rounded=0;orthogonalLoop=1;jettySize=auto;html=1;exitX=1;exitY=0;exitDx=0;exitDy=0;entryX=0;entryY=0.5;entryDx=0;entryDy=0;" parent="1" source="4MTGIlOZVMy8EB1IHIza-88" target="G_ifErSMRyxqqM8HUOQk-22" edge="1">
          <mxGeometry relative="1" as="geometry">
            <Array as="points">
              <mxPoint x="450" y="900" />
              <mxPoint x="450" y="900" />
            </Array>
          </mxGeometry>
        </mxCell>
        <mxCell id="4MTGIlOZVMy8EB1IHIza-88" value="" style="rounded=0;whiteSpace=wrap;html=1;" parent="1" vertex="1">
          <mxGeometry x="355" y="900" width="20" height="140" as="geometry" />
        </mxCell>
        <mxCell id="4MTGIlOZVMy8EB1IHIza-91" value="1.introduce datos obra para obtener precio" style="text;html=1;align=center;verticalAlign=middle;resizable=0;points=[];autosize=1;strokeColor=none;fillColor=none;" parent="1" vertex="1">
          <mxGeometry x="120" y="870" width="250" height="30" as="geometry" />
        </mxCell>
        <mxCell id="4MTGIlOZVMy8EB1IHIza-93" value="3.calcula precio max y ajusta&lt;div&gt;&amp;nbsp;en función de cuadros&amp;nbsp;&lt;/div&gt;" style="text;html=1;align=center;verticalAlign=middle;resizable=0;points=[];autosize=1;strokeColor=none;fillColor=none;" parent="1" vertex="1">
          <mxGeometry x="765" y="950" width="180" height="40" as="geometry" />
        </mxCell>
        <mxCell id="4MTGIlOZVMy8EB1IHIza-95" value="2.hace oferta&amp;nbsp;" style="text;html=1;align=center;verticalAlign=middle;resizable=0;points=[];autosize=1;strokeColor=none;fillColor=none;" parent="1" vertex="1">
          <mxGeometry x="195" y="940" width="100" height="30" as="geometry" />
        </mxCell>
        <mxCell id="4MTGIlOZVMy8EB1IHIza-98" value="[si sistema acepta oferta]" style="text;html=1;align=center;verticalAlign=middle;resizable=0;points=[];autosize=1;strokeColor=none;fillColor=none;" parent="1" vertex="1">
          <mxGeometry x="155" y="1050" width="160" height="30" as="geometry" />
        </mxCell>
        <mxCell id="4MTGIlOZVMy8EB1IHIza-100" value="6.envia mensaje (Cuadro subastado)" style="text;html=1;align=center;verticalAlign=middle;resizable=0;points=[];autosize=1;strokeColor=none;fillColor=none;" parent="1" vertex="1">
          <mxGeometry x="142.5" y="1020" width="220" height="30" as="geometry" />
        </mxCell>
        <mxCell id="G_ifErSMRyxqqM8HUOQk-2" value="GUI" style="rounded=0;whiteSpace=wrap;html=1;" parent="1" vertex="1">
          <mxGeometry x="500" y="920" width="90" height="30" as="geometry" />
        </mxCell>
        <mxCell id="G_ifErSMRyxqqM8HUOQk-3" value="&amp;lt;&amp;lt;create&amp;gt;&amp;gt;" style="text;html=1;align=center;verticalAlign=middle;resizable=0;points=[];autosize=1;strokeColor=none;fillColor=none;" parent="1" vertex="1">
          <mxGeometry x="385" y="910" width="80" height="30" as="geometry" />
        </mxCell>
        <mxCell id="G_ifErSMRyxqqM8HUOQk-4" value="" style="endArrow=none;html=1;rounded=0;entryX=0.5;entryY=1;entryDx=0;entryDy=0;dashed=1;" parent="1" source="G_ifErSMRyxqqM8HUOQk-5" target="G_ifErSMRyxqqM8HUOQk-2" edge="1">
          <mxGeometry width="50" height="50" relative="1" as="geometry">
            <mxPoint x="544.66" y="1110" as="sourcePoint" />
            <mxPoint x="544.66" y="950" as="targetPoint" />
          </mxGeometry>
        </mxCell>
        <mxCell id="G_ifErSMRyxqqM8HUOQk-6" value="" style="endArrow=none;html=1;rounded=0;entryX=0.5;entryY=1;entryDx=0;entryDy=0;dashed=1;" parent="1" target="G_ifErSMRyxqqM8HUOQk-5" edge="1">
          <mxGeometry width="50" height="50" relative="1" as="geometry">
            <mxPoint x="545" y="1080" as="sourcePoint" />
            <mxPoint x="545" y="950" as="targetPoint" />
          </mxGeometry>
        </mxCell>
        <mxCell id="G_ifErSMRyxqqM8HUOQk-5" value="" style="rounded=0;whiteSpace=wrap;html=1;" parent="1" vertex="1">
          <mxGeometry x="535" y="980" width="20" height="60" as="geometry" />
        </mxCell>
        <mxCell id="G_ifErSMRyxqqM8HUOQk-11" value="&amp;lt;&amp;lt;destroy&amp;gt;&amp;gt;" style="text;html=1;align=center;verticalAlign=middle;resizable=0;points=[];autosize=1;strokeColor=none;fillColor=none;" parent="1" vertex="1">
          <mxGeometry x="410" y="1060" width="90" height="30" as="geometry" />
        </mxCell>
        <mxCell id="G_ifErSMRyxqqM8HUOQk-14" style="edgeStyle=orthogonalEdgeStyle;rounded=0;orthogonalLoop=1;jettySize=auto;html=1;exitX=0;exitY=0.75;exitDx=0;exitDy=0;entryX=1.231;entryY=0.89;entryDx=0;entryDy=0;entryPerimeter=0;" parent="1" source="G_ifErSMRyxqqM8HUOQk-5" target="4MTGIlOZVMy8EB1IHIza-88" edge="1">
          <mxGeometry relative="1" as="geometry" />
        </mxCell>
        <mxCell id="G_ifErSMRyxqqM8HUOQk-15" value="5.transferencia de datos&amp;nbsp;&lt;div&gt;de usuario&lt;/div&gt;&lt;div&gt;y presenta valor ajustado&lt;/div&gt;" style="text;html=1;align=center;verticalAlign=middle;resizable=0;points=[];autosize=1;strokeColor=none;fillColor=none;" parent="1" vertex="1">
          <mxGeometry x="386" y="975" width="160" height="60" as="geometry" />
        </mxCell>
        <mxCell id="G_ifErSMRyxqqM8HUOQk-22" value="Calcular Precio Obra" style="rounded=0;whiteSpace=wrap;html=1;" parent="1" vertex="1">
          <mxGeometry x="694" y="885" width="90" height="30" as="geometry" />
        </mxCell>
        <mxCell id="G_ifErSMRyxqqM8HUOQk-23" value="&amp;lt;&amp;lt;create&amp;gt;&amp;gt;" style="text;html=1;align=center;verticalAlign=middle;resizable=0;points=[];autosize=1;strokeColor=none;fillColor=none;" parent="1" vertex="1">
          <mxGeometry x="490" y="870" width="80" height="30" as="geometry" />
        </mxCell>
        <mxCell id="G_ifErSMRyxqqM8HUOQk-24" value="" style="endArrow=none;html=1;rounded=0;entryX=0.5;entryY=1;entryDx=0;entryDy=0;dashed=1;" parent="1" source="G_ifErSMRyxqqM8HUOQk-26" target="G_ifErSMRyxqqM8HUOQk-22" edge="1">
          <mxGeometry width="50" height="50" relative="1" as="geometry">
            <mxPoint x="738.66" y="1075" as="sourcePoint" />
            <mxPoint x="738.66" y="915" as="targetPoint" />
          </mxGeometry>
        </mxCell>
        <mxCell id="G_ifErSMRyxqqM8HUOQk-25" value="" style="endArrow=none;html=1;rounded=0;entryX=0.5;entryY=1;entryDx=0;entryDy=0;dashed=1;" parent="1" target="G_ifErSMRyxqqM8HUOQk-26" edge="1">
          <mxGeometry width="50" height="50" relative="1" as="geometry">
            <mxPoint x="740" y="1130" as="sourcePoint" />
            <mxPoint x="739" y="915" as="targetPoint" />
          </mxGeometry>
        </mxCell>
        <mxCell id="G_ifErSMRyxqqM8HUOQk-26" value="" style="rounded=0;whiteSpace=wrap;html=1;" parent="1" vertex="1">
          <mxGeometry x="729" y="945" width="20" height="60" as="geometry" />
        </mxCell>
        <mxCell id="G_ifErSMRyxqqM8HUOQk-27" value="&amp;lt;&amp;lt;destroy&amp;gt;&amp;gt;" style="text;html=1;align=center;verticalAlign=middle;resizable=0;points=[];autosize=1;strokeColor=none;fillColor=none;" parent="1" vertex="1">
          <mxGeometry x="490" y="1100" width="90" height="30" as="geometry" />
        </mxCell>
        <mxCell id="G_ifErSMRyxqqM8HUOQk-28" style="edgeStyle=orthogonalEdgeStyle;rounded=0;orthogonalLoop=1;jettySize=auto;html=1;exitX=0;exitY=0.75;exitDx=0;exitDy=0;entryX=1.231;entryY=0.89;entryDx=0;entryDy=0;entryPerimeter=0;" parent="1" source="G_ifErSMRyxqqM8HUOQk-26" edge="1">
          <mxGeometry relative="1" as="geometry">
            <mxPoint x="574" y="990" as="targetPoint" />
          </mxGeometry>
        </mxCell>
        <mxCell id="G_ifErSMRyxqqM8HUOQk-29" value="4.devuelve precio con&amp;nbsp;&lt;div&gt;valor ajustado&lt;/div&gt;" style="text;html=1;align=center;verticalAlign=middle;resizable=0;points=[];autosize=1;strokeColor=none;fillColor=none;" parent="1" vertex="1">
          <mxGeometry x="590" y="950" width="140" height="40" as="geometry" />
        </mxCell>
        <mxCell id="G_ifErSMRyxqqM8HUOQk-32" value="" style="edgeStyle=none;orthogonalLoop=1;jettySize=auto;html=1;rounded=0;" parent="1" edge="1">
          <mxGeometry width="100" relative="1" as="geometry">
            <mxPoint x="370" y="1080" as="sourcePoint" />
            <mxPoint x="540" y="1080" as="targetPoint" />
            <Array as="points" />
          </mxGeometry>
        </mxCell>
        <mxCell id="G_ifErSMRyxqqM8HUOQk-33" style="edgeStyle=orthogonalEdgeStyle;rounded=0;orthogonalLoop=1;jettySize=auto;html=1;exitX=1;exitY=0;exitDx=0;exitDy=0;entryX=1;entryY=0.75;entryDx=0;entryDy=0;" parent="1" source="G_ifErSMRyxqqM8HUOQk-26" target="G_ifErSMRyxqqM8HUOQk-26" edge="1">
          <mxGeometry relative="1" as="geometry">
            <Array as="points">
              <mxPoint x="769" y="945" />
              <mxPoint x="769" y="990" />
            </Array>
          </mxGeometry>
        </mxCell>
        <mxCell id="G_ifErSMRyxqqM8HUOQk-34" value="" style="edgeStyle=none;orthogonalLoop=1;jettySize=auto;html=1;rounded=0;" parent="1" edge="1">
          <mxGeometry width="100" relative="1" as="geometry">
            <mxPoint x="370" y="1120" as="sourcePoint" />
            <mxPoint x="730" y="1120" as="targetPoint" />
            <Array as="points" />
          </mxGeometry>
        </mxCell>
        <mxCell id="QWfW6l6wFYr6L1Dl8ZQQ-1" value="" style="shape=umlDestroy;whiteSpace=wrap;html=1;strokeWidth=3;targetShapes=umlLifeline;" vertex="1" parent="1">
          <mxGeometry x="535" y="1070" width="25" height="30" as="geometry" />
        </mxCell>
        <mxCell id="QWfW6l6wFYr6L1Dl8ZQQ-2" value="" style="shape=umlDestroy;whiteSpace=wrap;html=1;strokeWidth=3;targetShapes=umlLifeline;" vertex="1" parent="1">
          <mxGeometry x="730" y="1110" width="25" height="30" as="geometry" />
        </mxCell>
      </root>
    </mxGraphModel>
  </diagram>
</mxfile>
